<?xml version="1.0" encoding="UTF-8" standalone="no"?>
<!-- Created with Inkscape (http://www.inkscape.org/) -->

<svg
   xmlns:dc="http://purl.org/dc/elements/1.1/"
   xmlns:cc="http://creativecommons.org/ns#"
   xmlns:rdf="http://www.w3.org/1999/02/22-rdf-syntax-ns#"
   xmlns:svg="http://www.w3.org/2000/svg"
   xmlns="http://www.w3.org/2000/svg"
   xmlns:sodipodi="http://sodipodi.sourceforge.net/DTD/sodipodi-0.dtd"
   xmlns:inkscape="http://www.inkscape.org/namespaces/inkscape"
   width="210mm"
   height="297mm"
   viewBox="0 0 744.09448819 1052.3622047"
   id="svg2"
   version="1.1"
   inkscape:version="0.91 r13725"
   sodipodi:docname="slash.svg">
  <defs
     id="defs4" />
  <sodipodi:namedview
     id="base"
     pagecolor="#ffffff"
     bordercolor="#666666"
     borderopacity="1.0"
     inkscape:pageopacity="0.0"
     inkscape:pageshadow="2"
     inkscape:zoom="0.49497475"
     inkscape:cx="244.36159"
     inkscape:cy="1233.2401"
     inkscape:document-units="px"
     inkscape:current-layer="layer1"
     showgrid="false"
     inkscape:window-width="1920"
     inkscape:window-height="1178"
     inkscape:window-x="1912"
     inkscape:window-y="-8"
     inkscape:window-maximized="1" />
  <metadata
     id="metadata7">
    <rdf:RDF>
      <cc:Work
         rdf:about="">
        <dc:format>image/svg+xml</dc:format>
        <dc:type
           rdf:resource="http://purl.org/dc/dcmitype/StillImage" />
        <dc:title></dc:title>
      </cc:Work>
    </rdf:RDF>
  </metadata>
  <g
     inkscape:label="Calque 1"
     inkscape:groupmode="layer"
     id="layer1">
    <rect
       style="opacity:1;fill:#000000;fill-opacity:1;stroke:none;stroke-width:3.64297843;stroke-linejoin:round;stroke-miterlimit:4;stroke-dasharray:none;stroke-opacity:1"
       id="rect4275"
       width="320"
       height="320.00003"
       x="-640"
       y="-467.63782" />
    <path
       style="opacity:1;fill:#ffffff;fill-opacity:1;stroke:#00b2ff;stroke-width:5;stroke-linejoin:round;stroke-miterlimit:4;stroke-dasharray:none;stroke-opacity:1"
       d="m -593.73746,-455.92299 a 244.6602,150.00001 0 0 0 -28.72288,1.22537 249.02914,164.90683 0 0 1 142.31624,148.77464 249.02914,164.90683 0 0 1 -142.40585,148.8434 244.6602,150.00001 0 0 0 28.81249,1.15659 244.6602,150.00001 0 0 0 244.6602,-149.99999 244.6602,150.00001 0 0 0 -244.6602,-150.00001 z"
       id="path4136"
       inkscape:connector-curvature="0" />
    <rect
       style="opacity:1;fill:#707070;fill-opacity:1;stroke:none;stroke-width:3.64297843;stroke-linejoin:round;stroke-miterlimit:4;stroke-dasharray:none;stroke-opacity:1"
       id="rect4275-5"
       width="320"
       height="320.00003"
       x="-320"
       y="-467.63782" />
    <path
       style="opacity:1;fill:#ffffff;fill-opacity:1;stroke:#00b2ff;stroke-width:5;stroke-linejoin:round;stroke-miterlimit:4;stroke-dasharray:none;stroke-opacity:1"
       d="m -255.58309,-434.78066 a 203.8835,125.00001 0 0 0 -23.93573,1.02115 207.52428,137.42236 0 0 1 118.59687,123.97887 207.52428,137.42236 0 0 1 -118.67154,124.03616 203.8835,125.00001 0 0 0 24.0104,0.96383 203.8835,125.00001 0 0 0 203.883508,-124.99999 203.8835,125.00001 0 0 0 -203.883508,-125.00002 z"
       id="path4136-7"
       inkscape:connector-curvature="0" />
    <rect
       style="opacity:1;fill:#000000;fill-opacity:1;stroke:none;stroke-width:3.64297843;stroke-linejoin:round;stroke-miterlimit:4;stroke-dasharray:none;stroke-opacity:1"
       id="rect4275-54"
       width="320"
       height="320.00003"
       x="0"
       y="-467.63782" />
    <path
       style="opacity:1;fill:#ffffff;fill-opacity:1;stroke:#00b2ff;stroke-width:5;stroke-linejoin:round;stroke-miterlimit:4;stroke-dasharray:none;stroke-opacity:1"
       d="m 85.261371,-402.6378 a 163.1068,100.00001 0 0 0 -19.14859,0.81692 166.01942,109.93789 0 0 1 94.877489,99.18309 166.01942,109.93789 0 0 1 -94.937219,99.22893 163.1068,100.00001 0 0 0 19.20832,0.77106 A 163.1068,100.00001 0 0 0 248.36817,-302.63779 163.1068,100.00001 0 0 0 85.261371,-402.6378 Z"
       id="path4136-7-0"
       inkscape:connector-curvature="0" />
    <rect
       style="opacity:1;fill:#707070;fill-opacity:1;stroke:none;stroke-width:3.64297843;stroke-linejoin:round;stroke-miterlimit:4;stroke-dasharray:none;stroke-opacity:1"
       id="rect4275-5-2"
       width="320"
       height="320.00003"
       x="320"
       y="-467.63782" />
    <path
       style="opacity:1;fill:#ffffff;fill-opacity:1;stroke:#00b2ff;stroke-width:5;stroke-linejoin:round;stroke-miterlimit:4;stroke-dasharray:none;stroke-opacity:1"
       d="m 423.24868,-373.35208 a 122.3301,75.000006 0 0 0 -14.36144,0.61269 124.51456,82.453416 0 0 1 71.15811,74.38732 124.51456,82.453416 0 0 1 -71.20291,74.42169 122.3301,75.000006 0 0 0 14.40624,0.5783 122.3301,75.000006 0 0 0 122.3301,-74.99999 122.3301,75.000006 0 0 0 -122.3301,-75.00001 z"
       id="path4136-7-0-4"
       inkscape:connector-curvature="0" />
    <rect
       style="opacity:1;fill:#000000;fill-opacity:1;stroke:none;stroke-width:3.64297843;stroke-linejoin:round;stroke-miterlimit:4;stroke-dasharray:none;stroke-opacity:1"
       id="rect4275-54-1"
       width="320"
       height="320.00003"
       x="620"
       y="-467.63782" />
    <path
       style="opacity:1;fill:#ffffff;fill-opacity:1;stroke:#00b2ff;stroke-width:5;stroke-linejoin:round;stroke-miterlimit:4;stroke-dasharray:none;stroke-opacity:1"
       d="m 746.95028,-352.6378 a 81.553399,50.000003 0 0 0 -9.57429,0.40846 83.009706,54.968943 0 0 1 47.43874,49.59155 83.009706,54.968943 0 0 1 -47.46861,49.61446 81.553399,50.000003 0 0 0 9.60416,0.38553 81.553399,50.000003 0 0 0 81.5534,-49.99999 81.553399,50.000003 0 0 0 -81.5534,-50.00001 z"
       id="path4136-7-0-4-5"
       inkscape:connector-curvature="0" />
    <rect
       style="opacity:1;fill:#707070;fill-opacity:1;stroke:none;stroke-width:3.64297843;stroke-linejoin:round;stroke-miterlimit:4;stroke-dasharray:none;stroke-opacity:1"
       id="rect4275-5-2-6"
       width="320"
       height="320.00003"
       x="940"
       y="-467.63782" />
    <path
       style="opacity:1;fill:#ffffff;fill-opacity:1;stroke:#00b2ff;stroke-width:5;stroke-linejoin:round;stroke-miterlimit:4;stroke-dasharray:none;stroke-opacity:1"
       d="m 1075.4047,-328.42258 a 40.776699,25.000001 0 0 0 -4.7872,0.20423 41.504853,27.484471 0 0 1 23.7194,24.79577 41.504853,27.484471 0 0 1 -23.7343,24.80723 40.776699,25.000001 0 0 0 4.8021,0.19277 40.776699,25.000001 0 0 0 40.7767,-25 40.776699,25.000001 0 0 0 -40.7767,-25 z"
       id="path4136-7-0-4-5-5"
       inkscape:connector-curvature="0" />
    <rect
       style="opacity:1;fill:#707070;fill-opacity:0;stroke:none;stroke-width:5;stroke-linejoin:round;stroke-miterlimit:4;stroke-dasharray:none;stroke-opacity:1"
       id="rect4415"
       width="1920"
       height="320"
       x="-636.39612"
       y="39.397522" />
    <path
       style="opacity:1;fill:#ffffff;fill-opacity:1;stroke:#00b2ff;stroke-width:5;stroke-linejoin:round;stroke-miterlimit:4;stroke-dasharray:none;stroke-opacity:1"
       d="m -592.61047,49.487964 a 244.6602,150.00001 0 0 0 -28.7229,1.22537 249.02914,164.90683 0 0 1 142.3163,148.774636 249.02914,164.90683 0 0 1 -142.4059,148.8434 244.6602,150.00001 0 0 0 28.8125,1.15659 244.6602,150.00001 0 0 0 244.6602,-149.99999 244.6602,150.00001 0 0 0 -244.6602,-150.000006 z"
       id="path4136-0"
       inkscape:connector-curvature="0" />
    <path
       style="opacity:1;fill:#ffffff;fill-opacity:1;stroke:#00b2ff;stroke-width:5;stroke-linejoin:round;stroke-miterlimit:4;stroke-dasharray:none;stroke-opacity:1"
       d="m -254.4561,70.630294 a 203.8835,125.00001 0 0 0 -23.93573,1.02115 207.52428,137.42236 0 0 1 118.59687,123.978866 207.52428,137.42236 0 0 1 -118.67154,124.03616 203.8835,125.00001 0 0 0 24.0104,0.96383 A 203.8835,125.00001 0 0 0 -50.572592,195.63031 203.8835,125.00001 0 0 0 -254.4561,70.630294 Z"
       id="path4136-7-1"
       inkscape:connector-curvature="0" />
    <path
       style="opacity:1;fill:#ffffff;fill-opacity:1;stroke:#00b2ff;stroke-width:5;stroke-linejoin:round;stroke-miterlimit:4;stroke-dasharray:none;stroke-opacity:1"
       d="m 86.388358,102.77315 a 163.1068,100.00001 0 0 0 -19.14859,0.81692 166.01942,109.93789 0 0 1 94.877492,99.18309 166.01942,109.93789 0 0 1 -94.937222,99.22893 163.1068,100.00001 0 0 0 19.20832,0.77106 A 163.1068,100.00001 0 0 0 249.49516,202.77316 163.1068,100.00001 0 0 0 86.388358,102.77315 Z"
       id="path4136-7-0-5"
       inkscape:connector-curvature="0" />
    <path
       style="opacity:1;fill:#ffffff;fill-opacity:1;stroke:#00b2ff;stroke-width:5;stroke-linejoin:round;stroke-miterlimit:4;stroke-dasharray:none;stroke-opacity:1"
       d="m 424.37569,132.05887 a 122.3301,75.000006 0 0 0 -14.3615,0.61269 124.51456,82.453416 0 0 1 71.15809,74.38732 124.51456,82.453416 0 0 1 -71.20289,74.42169 122.3301,75.000006 0 0 0 14.4063,0.5783 122.3301,75.000006 0 0 0 122.33009,-74.99999 122.3301,75.000006 0 0 0 -122.33009,-75.00001 z"
       id="path4136-7-0-4-7"
       inkscape:connector-curvature="0" />
    <path
       style="opacity:1;fill:#ffffff;fill-opacity:1;stroke:#00b2ff;stroke-width:5;stroke-linejoin:round;stroke-miterlimit:4;stroke-dasharray:none;stroke-opacity:1"
       d="m 748.07729,152.77316 a 81.553399,50.000003 0 0 0 -9.5743,0.40846 83.009706,54.968943 0 0 1 47.4387,49.59154 83.009706,54.968943 0 0 1 -47.4686,49.61446 81.553399,50.000003 0 0 0 9.6042,0.38553 81.553399,50.000003 0 0 0 81.5534,-49.99999 81.553399,50.000003 0 0 0 -81.5534,-50 z"
       id="path4136-7-0-4-5-7"
       inkscape:connector-curvature="0" />
    <path
       style="opacity:1;fill:#ffffff;fill-opacity:1;stroke:#00b2ff;stroke-width:5;stroke-linejoin:round;stroke-miterlimit:4;stroke-dasharray:none;stroke-opacity:1"
       d="m 1076.5317,176.98837 a 40.776699,25.000001 0 0 0 -4.7872,0.20423 41.504853,27.484471 0 0 1 23.7194,24.79577 41.504853,27.484471 0 0 1 -23.7343,24.80723 40.776699,25.000001 0 0 0 4.8021,0.19277 40.776699,25.000001 0 0 0 40.7767,-25 40.776699,25.000001 0 0 0 -40.7767,-25 z"
       id="path4136-7-0-4-5-5-1"
       inkscape:connector-curvature="0" />
  </g>
</svg>
